<mxfile host="app.diagrams.net" modified="2024-03-07T17:06:22.211Z" agent="Mozilla/5.0 (Windows NT 10.0; Win64; x64) AppleWebKit/537.36 (KHTML, like Gecko) Chrome/116.0.0.0 Safari/537.36 OPR/102.0.0.0" version="24.0.2" etag="yHFYS268Xd95E8wyosE1" type="github">
  <diagram name="PÃ¡gina-1" id="U7Fs18w_2iN4KsYXqvBg">
    <mxGraphModel>
      <root>
        <mxCell id="0" />
        <mxCell id="1" parent="0" />
      </root>
    </mxGraphModel>
  </diagram>
</mxfile>
